<svg width="64" height="64" viewBox="0 0 64 64" xmlns="http://www.w3.org/2000/svg">
  <defs>
    <clipPath id="circleClip">
      <circle cx="32" cy="32" r="30"/>
    </clipPath>
  </defs>
  
  <!-- Circular blue sky background -->
  <circle cx="32" cy="32" r="30" fill="#87ceeb" stroke="#6c757d" stroke-width="2"/>
  
  <!-- Sun (outside clip path so it can extend beyond circle) -->
  <circle cx="48" cy="16" r="8" fill="#ffd700"/>
  <circle cx="48" cy="16" r="6" fill="#ffeb3b"/>
  
  <!-- Sun rays -->
  <line x1="48" y1="6" x2="48" y2="2" stroke="#ffd700" stroke-width="2" stroke-linecap="round"/>
  <line x1="48" y1="26" x2="48" y2="30" stroke="#ffd700" stroke-width="2" stroke-linecap="round"/>
  <line x1="38" y1="16" x2="34" y2="16" stroke="#ffd700" stroke-width="2" stroke-linecap="round"/>
  <line x1="58" y1="16" x2="62" y2="16" stroke="#ffd700" stroke-width="2" stroke-linecap="round"/>
  <line x1="42" y1="10" x2="39" y2="7" stroke="#ffd700" stroke-width="2" stroke-linecap="round"/>
  <line x1="54" y1="22" x2="57" y2="25" stroke="#ffd700" stroke-width="2" stroke-linecap="round"/>
  <line x1="42" y1="22" x2="39" y2="25" stroke="#ffd700" stroke-width="2" stroke-linecap="round"/>
  <line x1="54" y1="10" x2="57" y2="7" stroke="#ffd700" stroke-width="2" stroke-linecap="round"/>
  
  <!-- Clip everything else to circle -->
  <g clip-path="url(#circleClip)">
  
  <!-- Green terrain/hills -->
  <path d="M0 64 L0 50 Q16 45 32 48 Q48 45 64 50 L64 64 Z" fill="#90ee90"/>
  <path d="M0 64 L0 52 Q20 48 40 50 Q60 48 64 52 L64 64 Z" fill="#32cd32"/>
  
  <!-- Bigger Boulder (more prominent) -->
  <path d="M12 52 L22 32 L32 36 L42 40 L48 52 L46 58 L38 60 L26 60 L18 58 L12 52 Z" fill="#8b9dc3" stroke="#6c757d" stroke-width="1"/>
  
  <!-- Boulder texture/details -->
  <path d="M16 48 L24 40 L30 42 L36 46" stroke="#6c757d" stroke-width="1" fill="none" opacity="0.6"/>
  <path d="M18 52 L26 48 L32 50 L40 54" stroke="#6c757d" stroke-width="1" fill="none" opacity="0.6"/>
  
  <!-- Small rock features -->
  <circle cx="24" cy="44" r="1.5" fill="#6c757d"/>
  <circle cx="36" cy="46" r="1" fill="#6c757d"/>
  <circle cx="30" cy="52" r="1.2" fill="#6c757d"/>
  <circle cx="42" cy="48" r="0.8" fill="#6c757d"/>
  <circle cx="20" cy="50" r="1" fill="#6c757d"/>
  </g>
</svg> 